<?xml version="1.0" encoding="UTF-8"?>
<svg xmlns="http://www.w3.org/2000/svg" viewBox="0 0 64 64"><path fill="#f6b873" d="M32.08 62s9.67-8.15 21.08-14c5.18-2.66 10.5-7.14 10.5-15.98C63.66 21.34 57.86 6 31.81 6 6.73 6 .34 21.34.34 32.02.34 40.86 5.8 45.34 10.84 48c11.41 5.85 21.24 14 21.24 14"/><path fill="#e8a368" d="M32.08 53c0 1-6.52-5.7-12.94-9.85-6.42-4.16-6.97-5-6.97-10.5s1.32-14.1 5.91-17.5c2.96-2.19 6.91-3.15 13.79-3.15s11.47.82 14.43 3.01c4.59 3.4 6.25 12 6.25 17.5s-1.13 6.32-7.55 10.47c-6.42 4.16-12.93 9 -12.93 10"/><path fill="#fbbf67" d="M33.5 5.5c-1.38 0-2.5 1.12-2.5 2.5s1.12 2.5 2.5 2.5 2.5-1.12 2.5-2.5-1.12-2.5-2.5-2.5"/><path fill="#d13b3b" d="M33.5 9.5C32.12 9.5 31 10.62 31 12s1.12 2.5 2.5 2.5 2.5-1.12 2.5-2.5-1.12-2.5-2.5-2.5"/><ellipse cx="24.5" cy="27.5" rx="3.5" ry="4.5" fill="#1a1626"/><ellipse cx="42.5" cy="27.5" rx="3.5" ry="4.5" fill="#1a1626"/><path fill="#d13b3b" d="M33.5 19c-2.76 0-5 .9-5 2 0 .51 2.9 8 5.38 8 2.7 0 4.62-7.49 4.62-8 0-1.1-2.24-2-5-2"/><path fill="#fbce9d" d="M35.71 42.14c-1.86-.1-3.57.4-3.84 1.12-.32.85 1.86 1.62 3.9 1.73 2.05.1 3.81-.36 3.94-1.03.14-.67-2.13-1.71-4-1.82"/></svg>